<mxfile host="app.diagrams.net" modified="2023-09-29T16:53:50.594Z" agent="Mozilla/5.0 (Windows NT 10.0; Win64; x64) AppleWebKit/537.36 (KHTML, like Gecko) Chrome/117.0.0.0 Safari/537.36" etag="xnxQRXeqFJExW7JY9-O_" version="22.0.0" type="device">
  <diagram name="Página-1" id="sG0SuYwwIbg1iv6QZ0Ha">
    <mxGraphModel dx="1434" dy="782" grid="1" gridSize="10" guides="1" tooltips="1" connect="1" arrows="1" fold="1" page="1" pageScale="1" pageWidth="850" pageHeight="1100" math="0" shadow="0">
      <root>
        <mxCell id="0" />
        <mxCell id="1" parent="0" />
        <mxCell id="luIdL6aBGxs0pIPvoTc5-1" value="Inicio" style="ellipse;whiteSpace=wrap;html=1;" vertex="1" parent="1">
          <mxGeometry x="365" y="60" width="120" height="80" as="geometry" />
        </mxCell>
        <mxCell id="luIdL6aBGxs0pIPvoTc5-3" value="Crear objeto carta1 con valores 7 y &quot;Espadas&quot;" style="rounded=0;whiteSpace=wrap;html=1;" vertex="1" parent="1">
          <mxGeometry x="358" y="240" width="135" height="80" as="geometry" />
        </mxCell>
        <mxCell id="luIdL6aBGxs0pIPvoTc5-4" value="Llamar al método imprimir() en carta1" style="rounded=1;whiteSpace=wrap;html=1;" vertex="1" parent="1">
          <mxGeometry x="358" y="380" width="135" height="80" as="geometry" />
        </mxCell>
        <mxCell id="luIdL6aBGxs0pIPvoTc5-5" value="Crear objeto carta2 con valores 8 y &quot;Diamantes&quot;" style="rounded=0;whiteSpace=wrap;html=1;" vertex="1" parent="1">
          <mxGeometry x="358" y="540" width="134" height="80" as="geometry" />
        </mxCell>
        <mxCell id="luIdL6aBGxs0pIPvoTc5-6" value="llamar al método imprimir() en carta2" style="rounded=0;whiteSpace=wrap;html=1;" vertex="1" parent="1">
          <mxGeometry x="365" y="700" width="120" height="60" as="geometry" />
        </mxCell>
        <mxCell id="luIdL6aBGxs0pIPvoTc5-7" value="Fin" style="ellipse;whiteSpace=wrap;html=1;" vertex="1" parent="1">
          <mxGeometry x="366" y="850" width="120" height="80" as="geometry" />
        </mxCell>
        <mxCell id="luIdL6aBGxs0pIPvoTc5-8" value="" style="endArrow=classic;html=1;rounded=0;exitX=0.5;exitY=1;exitDx=0;exitDy=0;entryX=0.5;entryY=0;entryDx=0;entryDy=0;" edge="1" parent="1" source="luIdL6aBGxs0pIPvoTc5-1" target="luIdL6aBGxs0pIPvoTc5-3">
          <mxGeometry width="50" height="50" relative="1" as="geometry">
            <mxPoint x="450" y="210" as="sourcePoint" />
            <mxPoint x="450" y="580" as="targetPoint" />
          </mxGeometry>
        </mxCell>
        <mxCell id="luIdL6aBGxs0pIPvoTc5-9" value="" style="endArrow=classic;html=1;rounded=0;exitX=0.5;exitY=1;exitDx=0;exitDy=0;entryX=0.5;entryY=0;entryDx=0;entryDy=0;" edge="1" parent="1" source="luIdL6aBGxs0pIPvoTc5-3" target="luIdL6aBGxs0pIPvoTc5-4">
          <mxGeometry width="50" height="50" relative="1" as="geometry">
            <mxPoint x="400" y="430" as="sourcePoint" />
            <mxPoint x="450" y="380" as="targetPoint" />
          </mxGeometry>
        </mxCell>
        <mxCell id="luIdL6aBGxs0pIPvoTc5-10" value="" style="endArrow=classic;html=1;rounded=0;entryX=0.5;entryY=0;entryDx=0;entryDy=0;exitX=0.5;exitY=1;exitDx=0;exitDy=0;" edge="1" parent="1" source="luIdL6aBGxs0pIPvoTc5-4" target="luIdL6aBGxs0pIPvoTc5-5">
          <mxGeometry width="50" height="50" relative="1" as="geometry">
            <mxPoint x="420" y="470" as="sourcePoint" />
            <mxPoint x="450" y="380" as="targetPoint" />
          </mxGeometry>
        </mxCell>
        <mxCell id="luIdL6aBGxs0pIPvoTc5-11" value="" style="endArrow=classic;html=1;rounded=0;exitX=0.5;exitY=1;exitDx=0;exitDy=0;entryX=0.5;entryY=0;entryDx=0;entryDy=0;" edge="1" parent="1" source="luIdL6aBGxs0pIPvoTc5-5" target="luIdL6aBGxs0pIPvoTc5-6">
          <mxGeometry width="50" height="50" relative="1" as="geometry">
            <mxPoint x="420" y="680" as="sourcePoint" />
            <mxPoint x="470" y="630" as="targetPoint" />
          </mxGeometry>
        </mxCell>
        <mxCell id="luIdL6aBGxs0pIPvoTc5-12" value="" style="endArrow=classic;html=1;rounded=0;exitX=0.5;exitY=1;exitDx=0;exitDy=0;entryX=0.5;entryY=0;entryDx=0;entryDy=0;" edge="1" parent="1" source="luIdL6aBGxs0pIPvoTc5-6" target="luIdL6aBGxs0pIPvoTc5-7">
          <mxGeometry width="50" height="50" relative="1" as="geometry">
            <mxPoint x="400" y="810" as="sourcePoint" />
            <mxPoint x="450" y="760" as="targetPoint" />
          </mxGeometry>
        </mxCell>
      </root>
    </mxGraphModel>
  </diagram>
</mxfile>
